<svg width="18" height="18" viewBox="0 0 18 18" fill="none" xmlns="http://www.w3.org/2000/svg">
<g clip-path="url(#clip0)">
<path d="M17.4519 3.58905C16.8029 3.87373 16.1113 4.06243 15.3904 4.15405C16.1321 3.71121 16.6982 3.01532 16.9643 2.17654C16.2728 2.58884 15.5092 2.88007 14.6955 3.04259C14.0389 2.34342 13.1031 1.9104 12.0821 1.9104C10.1013 1.9104 8.50669 3.51815 8.50669 5.48912C8.50669 5.77271 8.53068 6.0454 8.58958 6.305C5.61513 6.15993 2.98318 4.73433 1.21509 2.56266C0.906406 3.09822 0.725343 3.71121 0.725343 4.37111C0.725343 5.61019 1.36343 6.70857 2.31455 7.34447C1.73973 7.33356 1.17582 7.16668 0.698074 6.90381C0.698074 6.91472 0.698074 6.9289 0.698074 6.94308C0.698074 8.68172 1.93825 10.1259 3.56454 10.4585C3.27331 10.5382 2.95591 10.5763 2.6265 10.5763C2.39745 10.5763 2.16621 10.5632 1.94915 10.5153C2.41272 11.9321 3.72815 12.9738 5.29227 13.0076C4.07501 13.9598 2.52943 14.5335 0.856232 14.5335C0.562822 14.5335 0.281411 14.5205 0 14.4845C1.58485 15.5065 3.4631 16.09 5.48861 16.09C12.0723 16.09 15.6718 10.6363 15.6718 5.90906C15.6718 5.7509 15.6663 5.5982 15.6587 5.44658C16.3687 4.94266 16.9654 4.3133 17.4519 3.58905Z" fill="white"/>
</g>
<defs>
<clipPath id="clip0">
<rect width="17.4519" height="17.4519" fill="white" transform="translate(0 0.27417)"/>
</clipPath>
</defs>
</svg>
