<svg width="20" height="19" viewBox="0 0 20 19" fill="none" xmlns="http://www.w3.org/2000/svg">
<g clip-path="url(#clip0)">
<path d="M16.162 9.97204C15.8651 9.59698 15.95 9.43011 16.162 9.09485C16.1659 9.09102 18.6175 5.70322 18.8701 4.55431L18.8717 4.55354C18.9972 4.13485 18.8717 3.82715 18.2647 3.82715H16.2562C15.7449 3.82715 15.5091 4.09122 15.3828 4.38668C15.3828 4.38668 14.3602 6.83453 12.9135 8.42127C12.4466 8.87977 12.2308 9.02673 11.9759 9.02673C11.8504 9.02673 11.6552 8.87977 11.6552 8.46107V4.55354C11.6552 4.05142 11.512 3.82715 11.0888 3.82715H7.93058C7.60986 3.82715 7.41927 4.06137 7.41927 4.27952C7.41927 4.75562 8.14261 4.86507 8.21762 6.20458V9.11093C8.21762 9.74777 8.10204 9.86488 7.84562 9.86488C7.16285 9.86488 5.50569 7.40707 4.52364 4.59411C4.3254 4.04836 4.13174 3.82791 3.61661 3.82791H1.60735C1.03404 3.82791 0.918457 4.09199 0.918457 4.38744C0.918457 4.90947 1.60122 7.50505 4.09347 10.9342C5.75446 13.2749 8.09362 14.5432 10.2215 14.5432C11.5006 14.5432 11.6567 14.2615 11.6567 13.777C11.6567 11.5404 11.5411 11.3291 12.1818 11.3291C12.4788 11.3291 12.9901 11.4761 14.1842 12.6051C15.5489 13.9439 15.7732 14.5432 16.5371 14.5432H18.5456C19.1181 14.5432 19.4082 14.2615 19.2414 13.7058C18.8594 12.537 16.2784 10.1328 16.162 9.97204Z" fill="white"/>
</g>
<defs>
<clipPath id="clip0">
<rect width="18.3704" height="18.3704" fill="white" transform="translate(0.918457)"/>
</clipPath>
</defs>
</svg>
